<svg width="416" height="102" viewBox="0 0 416 102" fill="none" xmlns="http://www.w3.org/2000/svg">
<path d="M64.1387 73.2898L71.884 58.0001H83.2653L64.1387 95.7715L45 58.0001H56.3893L64.1387 73.2898Z" fill="white"/>
<path d="M45.4917 35.9507L34.7639 58H19L45.4917 6L72 58H56.225L45.4917 35.9507Z" fill="white"/>
<path d="M39.1318 23.9871L37 22.5L34.5009 27.5003L34.8957 28.0846C34.358 29.4249 34.2151 30.9016 34.4853 32.3267C34.7555 33.7518 35.4265 35.061 36.4131 36.0879C37.0689 36.7751 37.8508 37.3179 38.7122 37.6839V63.908C37.8508 64.274 37.0689 64.8168 36.4131 65.504C35.7596 66.1834 35.2411 66.9903 34.8874 67.8787C34.5336 68.767 34.3516 69.7192 34.3516 70.6809C34.3516 71.6426 34.5336 72.5948 34.8874 73.4831C35.2411 74.3714 35.7596 75.1784 36.4131 75.8578C39.1519 78.7145 43.6024 78.7145 46.3493 75.8578C47.6672 74.4846 48.4075 72.6225 48.4075 70.6809C48.4075 68.7393 47.6672 66.8772 46.3493 65.504C45.8062 64.9402 45.178 64.473 44.4898 64.1207V38.1387L53.9703 48.0126C53.4432 49.3482 53.307 50.8164 53.579 52.2324C53.8509 53.6484 54.5188 54.949 55.4987 55.9707C56.151 56.6512 56.9258 57.191 57.7786 57.5593C58.6314 57.9277 59.5456 58.1173 60.4688 58.1173C61.3921 58.1173 62.3063 57.9277 63.1591 57.5593C64.0119 57.191 64.7867 56.6512 65.439 55.9707C66.0922 55.2917 66.6104 54.4852 66.964 53.5973C67.3176 52.7094 67.4996 51.7577 67.4996 50.7964C67.4996 49.8352 67.3176 48.8835 66.964 47.9956C66.6104 47.1077 66.0922 46.3012 65.439 45.6222C64.5082 44.6513 63.3334 43.9733 62.0495 43.6662C60.7656 43.359 59.4245 43.4351 58.1802 43.8857L48.0156 33.2961C48.4465 31.9999 48.5187 30.6036 48.2241 29.2666C47.9295 27.9296 47.2798 26.7059 46.3493 25.7351C45.4233 24.7704 44.2562 24.0953 42.9805 23.7864C41.7048 23.4774 40.3715 23.5469 39.1318 23.9871Z" fill="#F03C2E"/>
<path d="M131.97 42.0933C128.729 42.0933 126.314 43.6861 126.314 47.5164C126.314 50.4019 127.904 52.4072 131.795 52.4072C135.094 52.4072 137.335 50.4656 137.335 47.3972C137.335 43.921 135.329 42.0933 131.97 42.0933ZM125.489 69.1478C124.722 70.0891 123.957 71.0914 123.957 72.2711C123.957 74.6278 126.96 75.3348 131.086 75.3348C134.507 75.3348 139.162 75.0964 139.162 71.9196C139.162 70.0282 136.922 69.9117 134.091 69.7343L125.489 69.1478ZM142.934 42.2707C143.993 43.6278 145.115 45.5138 145.115 48.2254C145.115 54.7645 139.988 58.5975 132.562 58.5975C130.674 58.5975 128.965 58.3619 127.904 58.0659L125.96 61.1899L131.734 61.542C141.932 62.1922 147.942 62.4888 147.942 70.3241C147.942 77.1016 141.99 80.9326 131.734 80.9326C121.068 80.9326 117 78.2211 117 73.5646C117 70.9119 118.18 69.5013 120.243 67.5523C118.296 66.7322 117.651 65.2586 117.651 63.6658C117.651 62.3696 118.296 61.1899 119.359 60.0684C120.42 58.9497 121.598 57.8303 123.013 56.5341C120.127 55.1187 117.944 52.053 117.944 47.6911C117.944 40.9136 122.422 36.2598 131.441 36.2598C133.975 36.2598 135.507 36.4927 136.864 36.8503H148.358V41.8576L142.935 42.2707" fill="white"/>
<mask id="mask0_73_2" style="mask-type:luminance" maskUnits="userSpaceOnUse" x="151" y="21" width="17" height="47">
<path d="M151.02 21.0684H167.95V67.2609H151.02V21.0684Z" fill="white"/>
</mask>
<g mask="url(#mask0_73_2)">
<path d="M158.728 31.5587C155.368 31.5587 153.424 29.6151 153.424 26.2521C153.424 22.8952 155.368 21.0674 158.728 21.0674C162.148 21.0674 164.093 22.8958 164.093 26.2521C164.093 29.6145 162.149 31.5587 158.728 31.5587ZM151.125 66.9802V62.3237L154.13 61.9133C154.956 61.7948 155.074 61.6174 155.074 60.7309V43.4045C155.074 42.7591 154.898 42.344 154.308 42.1692L151.125 41.0478L151.773 36.2755H163.974V60.7323C163.974 61.6797 164.032 61.7955 164.918 61.9147L167.923 62.3251V66.9809L151.125 66.9802Z" fill="white"/>
</g>
<mask id="mask1_73_2" style="mask-type:luminance" maskUnits="userSpaceOnUse" x="167" y="26" width="25" height="42">
<path d="M167.273 26.6289H191.227V67.2615H167.273V26.6289Z" fill="white"/>
</mask>
<g mask="url(#mask1_73_2)">
<path d="M191.227 64.6946C188.693 65.9305 184.981 67.0519 181.62 67.0519C174.606 67.0519 171.956 64.2246 171.956 57.5608V42.1225C171.956 41.7676 171.956 41.5326 171.482 41.5326H167.355V36.287C172.546 35.6971 174.606 33.102 175.254 26.6787H180.855V35.049C180.855 35.4614 180.855 35.6382 181.326 35.6382H189.635V41.5326H180.855V55.6166C180.855 59.0947 181.68 60.4491 184.863 60.4491C186.513 60.4491 188.222 60.0367 189.635 59.5078L191.227 64.6946Z" fill="white"/>
</g>
<rect x="201.227" y="47.5" width="14" height="7" fill="white"/>
<path d="M377.508 33.2287L369.763 48.5183L362.014 33.2287H350.624L369.763 71L388.89 33.2287H377.508ZM314.559 46.5792C314.559 45.4308 314.151 44.5729 313.339 44.0193C312.53 43.46 311.425 43.1824 310.041 43.1824H304.857V50.1381H309.988C311.41 50.1381 312.53 49.8333 313.339 49.224C314.151 48.6141 314.559 47.7641 314.559 46.6819V46.5792ZM343.128 31L362.263 68.7709H350.872L343.128 53.4797L335.39 68.7709H327.659H324.006H314.101L307.395 58.6163H307.298H304.857V68.7709H292.972V33.2287H310.345C313.527 33.2287 316.142 33.5933 318.188 34.3209C320.241 35.0475 321.887 36.0401 323.14 37.2928C324.226 38.3729 325.038 39.5948 325.582 40.9439C326.12 42.2985 326.394 43.8948 326.394 45.7152V45.8229C326.394 48.4272 325.767 50.6281 324.511 52.4209C323.262 54.2147 321.553 55.6412 319.381 56.6871L325.558 65.7043L343.128 31ZM396.383 31L377.251 68.7709H388.64L396.383 53.4797L404.13 68.7709H415.516L396.383 31ZM258.488 43.2767H268.95V68.7709H280.837V43.2767H291.302V33.2287H258.488V43.2767ZM258.06 52.7251C258.786 53.9772 259.151 55.5032 259.151 57.2939V57.398C259.151 59.2579 258.781 60.9371 258.032 62.4245C257.289 63.9157 256.237 65.1751 254.884 66.2095C253.528 67.2396 251.884 68.0349 249.956 68.5943C248.029 69.1563 245.858 69.4365 243.458 69.4365C239.837 69.4365 236.457 68.9329 233.325 67.9371C230.193 66.936 227.494 65.4376 225.227 63.4448L231.573 55.8819C233.502 57.3683 235.537 58.436 237.666 59.0781C239.798 59.7219 241.917 60.0433 244.016 60.0433C245.101 60.0433 245.877 59.9068 246.352 59.6391C246.83 59.3672 247.062 58.9939 247.062 58.5219V58.4215C247.062 57.9089 246.711 57.4808 246.021 57.148C245.331 56.8095 244.03 56.4563 242.135 56.0844C240.138 55.6756 238.232 55.1996 236.423 54.6595C234.611 54.1219 233.021 53.4251 231.651 52.5772C230.278 51.7329 229.187 50.6625 228.372 49.3776C227.56 48.0901 227.155 46.5147 227.155 44.6548V44.5521C227.155 42.8579 227.483 41.2824 228.146 39.8281C228.801 38.3729 229.767 37.1011 231.037 36.0209C232.308 34.9371 233.885 34.0923 235.766 33.4787C237.639 32.8699 239.798 32.5657 242.24 32.5657C245.69 32.5657 248.711 32.9729 251.302 33.7881C253.892 34.5943 256.218 35.8152 258.286 37.4391L252.497 45.4652C250.805 44.2428 249.018 43.3548 247.14 42.7948C245.256 42.2349 243.494 41.9548 241.831 41.9548C240.953 41.9548 240.301 42.0901 239.879 42.362C239.448 42.6329 239.243 42.9901 239.243 43.4281V43.5292C239.243 44.0068 239.561 44.4131 240.207 44.7527C240.854 45.0891 242.105 45.4459 243.964 45.8188C246.233 46.2219 248.297 46.7147 250.164 47.2865C252.022 47.8683 253.627 48.6011 254.961 49.5005C256.298 50.398 257.333 51.4677 258.06 52.7251Z" fill="white"/>
</svg>
