<svg width="102" height="102" viewBox="0 0 102 102" fill="none" xmlns="http://www.w3.org/2000/svg">
<rect width="102" height="102" rx="20" fill="#191919"/>
<path d="M64.1387 73.2898L71.884 58.0001H83.2653L64.1387 95.7715L45 58.0001H56.3893L64.1387 73.2898Z" fill="white"/>
<path d="M45.4917 35.9507L34.7639 58H19L45.4917 6L72 58H56.225L45.4917 35.9507Z" fill="white"/>
<path d="M39.1318 23.9871L37 22.5L34.5009 27.5003L34.8957 28.0846C34.358 29.4249 34.2151 30.9016 34.4853 32.3267C34.7555 33.7518 35.4265 35.061 36.4131 36.0879C37.0689 36.7751 37.8508 37.3179 38.7122 37.6839V63.908C37.8508 64.274 37.0689 64.8168 36.4131 65.504C35.7596 66.1834 35.2411 66.9903 34.8874 67.8787C34.5336 68.767 34.3516 69.7192 34.3516 70.6809C34.3516 71.6426 34.5336 72.5948 34.8874 73.4831C35.2411 74.3714 35.7596 75.1784 36.4131 75.8578C39.1519 78.7145 43.6024 78.7145 46.3493 75.8578C47.6672 74.4846 48.4075 72.6225 48.4075 70.6809C48.4075 68.7393 47.6672 66.8772 46.3493 65.504C45.8062 64.9402 45.178 64.473 44.4898 64.1207V38.1387L53.9703 48.0126C53.4432 49.3482 53.307 50.8164 53.579 52.2324C53.8509 53.6484 54.5188 54.949 55.4987 55.9707C56.151 56.6512 56.9258 57.191 57.7786 57.5593C58.6314 57.9277 59.5456 58.1173 60.4688 58.1173C61.3921 58.1173 62.3063 57.9277 63.1591 57.5593C64.0119 57.191 64.7867 56.6512 65.439 55.9707C66.0922 55.2917 66.6104 54.4852 66.964 53.5973C67.3176 52.7094 67.4996 51.7577 67.4996 50.7964C67.4996 49.8352 67.3176 48.8835 66.964 47.9956C66.6104 47.1077 66.0922 46.3012 65.439 45.6222C64.5082 44.6513 63.3334 43.9733 62.0495 43.6662C60.7656 43.359 59.4245 43.4351 58.1802 43.8857L48.0156 33.2961C48.4465 31.9999 48.5187 30.6036 48.2241 29.2666C47.9295 27.9296 47.2798 26.7059 46.3493 25.7351C45.4233 24.7704 44.2562 24.0953 42.9805 23.7864C41.7048 23.4774 40.3715 23.5469 39.1318 23.9871Z" fill="#F03C2E"/>
</svg>
