<svg width="299" height="60" viewBox="0 0 299 60" fill="none" xmlns="http://www.w3.org/2000/svg">
<path d="M14.9697 21.0933C11.7293 21.0933 9.31434 22.6861 9.31434 26.5164C9.31434 29.4019 10.9038 31.4072 14.795 31.4072C18.0937 31.4072 20.3346 29.4656 20.3346 26.3972C20.3346 22.921 18.3294 21.0933 14.9697 21.0933ZM8.48883 48.1478C7.72155 49.0891 6.95698 50.0914 6.95698 51.2711C6.95698 53.6278 9.95972 54.3348 14.086 54.3348C17.5066 54.3348 22.1624 54.0964 22.1624 50.9196C22.1624 49.0282 19.9222 48.9117 17.0914 48.7343L8.48883 48.1478ZM25.9344 21.2707C26.9929 22.6278 28.115 24.5138 28.115 27.2254C28.115 33.7645 22.9879 37.5975 15.5623 37.5975C13.6735 37.5975 11.9649 37.3619 10.9038 37.0659L8.96017 40.1899L14.7341 40.542C24.9322 41.1922 30.9424 41.4888 30.9424 49.3241C30.9424 56.1016 24.9904 59.9326 14.7341 59.9326C4.068 59.9326 0 57.2211 0 52.5646C0 49.9119 1.1797 48.5013 3.24316 46.5523C1.29618 45.7322 0.650798 44.2586 0.650798 42.6658C0.650798 41.3696 1.29618 40.1899 2.3594 39.0684C3.41991 37.9497 4.59758 36.8303 6.01295 35.5341C3.12668 34.1187 0.944034 31.053 0.944034 26.6911C0.944034 19.9136 5.42242 15.2598 14.4408 15.2598C16.9749 15.2598 18.5068 15.4927 19.8639 15.8503H31.3575V20.8576L25.9351 21.2707" fill="white"/>
<mask id="mask0_72_60" style="mask-type:luminance" maskUnits="userSpaceOnUse" x="34" y="0" width="17" height="47">
<path d="M34.0195 0.0683594H50.9498V46.2609H34.0195V0.0683594Z" fill="white"/>
</mask>
<g mask="url(#mask0_72_60)">
<path d="M41.728 10.5587C38.3684 10.5587 36.4241 8.61513 36.4241 5.2521C36.4241 1.89517 38.3684 0.0673828 41.728 0.0673828C45.148 0.0673828 47.0929 1.89585 47.0929 5.2521C47.0929 8.61445 45.1486 10.5587 41.728 10.5587ZM34.125 45.9802V41.3237L37.1305 40.9133C37.956 40.7948 38.0745 40.6174 38.0745 39.7309V22.4045C38.0745 21.7591 37.8977 21.344 37.3079 21.1692L34.125 20.0478L34.7731 15.2755H46.9737V39.7323C46.9737 40.6797 47.032 40.7955 47.9184 40.9147L50.9232 41.3251V45.9809L34.125 45.9802Z" fill="white"/>
</g>
<mask id="mask1_72_60" style="mask-type:luminance" maskUnits="userSpaceOnUse" x="50" y="5" width="25" height="42">
<path d="M50.2734 5.62891H74.227V46.2615H50.2734V5.62891Z" fill="white"/>
</mask>
<g mask="url(#mask1_72_60)">
<path d="M74.2271 43.6946C71.693 44.9305 67.9812 46.0519 64.6195 46.0519C57.6064 46.0519 54.9558 43.2246 54.9558 36.5608V21.1225C54.9558 20.7676 54.9558 20.5326 54.4817 20.5326H50.3555V15.287C55.5456 14.6971 57.6064 12.102 58.2544 5.67871H63.855V14.049C63.855 14.4614 63.855 14.6382 64.3256 14.6382H72.635V20.5326H63.855V34.6166C63.855 38.0947 64.6798 39.4491 67.8627 39.4491C69.5131 39.4491 71.2217 39.0367 72.635 38.5078L74.2271 43.6946Z" fill="white"/>
</g>
<rect x="84.2266" y="26.5" width="14" height="7" fill="white"/>
<path d="M260.508 12.2287L252.763 27.5183L245.014 12.2287H233.624L252.763 50L271.89 12.2287H260.508ZM197.559 25.5792C197.559 24.4308 197.151 23.5729 196.339 23.0193C195.53 22.46 194.425 22.1824 193.041 22.1824H187.857V29.1381H192.988C194.41 29.1381 195.53 28.8333 196.339 28.224C197.151 27.6141 197.559 26.7641 197.559 25.6819V25.5792ZM226.128 10L245.263 47.7709H233.872L226.128 32.4797L218.39 47.7709H210.659H207.006H197.101L190.395 37.6163H190.298H187.857V47.7709H175.972V12.2287H193.345C196.527 12.2287 199.142 12.5933 201.188 13.3209C203.241 14.0475 204.887 15.0401 206.14 16.2928C207.226 17.3729 208.038 18.5948 208.582 19.9439C209.12 21.2985 209.394 22.8948 209.394 24.7152V24.8229C209.394 27.4272 208.767 29.6281 207.511 31.4209C206.262 33.2147 204.553 34.6412 202.381 35.6871L208.558 44.7043L226.128 10ZM279.383 10L260.251 47.7709H271.64L279.383 32.4797L287.13 47.7709H298.516L279.383 10ZM141.488 22.2767H151.95V47.7709H163.837V22.2767H174.302V12.2287H141.488V22.2767ZM141.06 31.7251C141.786 32.9772 142.151 34.5032 142.151 36.2939V36.398C142.151 38.2579 141.781 39.9371 141.032 41.4245C140.289 42.9157 139.237 44.1751 137.884 45.2095C136.528 46.2396 134.884 47.0349 132.956 47.5943C131.029 48.1563 128.858 48.4365 126.458 48.4365C122.837 48.4365 119.457 47.9329 116.325 46.9371C113.193 45.936 110.494 44.4376 108.227 42.4448L114.573 34.8819C116.502 36.3683 118.537 37.436 120.666 38.0781C122.798 38.7219 124.917 39.0433 127.016 39.0433C128.101 39.0433 128.877 38.9068 129.352 38.6391C129.83 38.3672 130.062 37.9939 130.062 37.5219V37.4215C130.062 36.9089 129.711 36.4808 129.021 36.148C128.331 35.8095 127.03 35.4563 125.135 35.0844C123.138 34.6756 121.232 34.1996 119.423 33.6595C117.611 33.1219 116.021 32.4251 114.651 31.5772C113.278 30.7329 112.187 29.6625 111.372 28.3776C110.56 27.0901 110.155 25.5147 110.155 23.6548V23.5521C110.155 21.8579 110.483 20.2824 111.146 18.8281C111.801 17.3729 112.767 16.1011 114.037 15.0209C115.308 13.9371 116.885 13.0923 118.766 12.4787C120.639 11.8699 122.798 11.5657 125.24 11.5657C128.69 11.5657 131.711 11.9729 134.302 12.7881C136.892 13.5943 139.218 14.8152 141.286 16.4391L135.497 24.4652C133.805 23.2428 132.018 22.3548 130.14 21.7948C128.256 21.2349 126.494 20.9548 124.831 20.9548C123.953 20.9548 123.301 21.0901 122.879 21.362C122.448 21.6329 122.243 21.9901 122.243 22.4281V22.5292C122.243 23.0068 122.561 23.4131 123.207 23.7527C123.854 24.0891 125.105 24.4459 126.964 24.8188C129.233 25.2219 131.297 25.7147 133.164 26.2865C135.022 26.8683 136.627 27.6011 137.961 28.5005C139.298 29.398 140.333 30.4677 141.06 31.7251Z" fill="white"/>
</svg>
